OpenSim_Sub04_CSStiffKnee_GRF.mot
version=1
nRows=58
nColumns=19
inDegrees=no
endheader
time	lFx	lFy	lFz	lCOPx	lCOPy	lCOPz	rFx	rFy	rFz	rCOPx	rCOPy	rCOPz	lMx	lMy	lMz	rMx	rMy	rMz
18.53000000	-3.39749876	2.00109061	-7.33769151	-0.00000990	0	0.00000865	-11.31340713	612.64954803	-47.17737704	0.85774858	0	-0.39909744	0	0.00006603	0	0	0.77801487	-0.00000000
18.54000000	-3.42122226	2.05986449	-7.32137263	-0.00002703	0	0.00002284	-8.32835578	621.29261933	-46.69655747	0.85053814	0	-0.39909240	0	0.00012984	0	0	1.35711609	0
18.55000000	-3.44546656	2.12714329	-7.31575831	-0.00004518	0	0.00003714	-5.20155133	630.11704788	-46.64464065	0.84364147	0	-0.39901070	0	0.00014715	0	0	1.92665987	-0.00000000
18.56000000	-3.49995983	2.20255841	-7.30837116	-0.00003573	0	0.00002700	-2.01442932	638.63784599	-47.08929354	0.83701899	0	-0.39889219	0	-0.00004215	0	0	2.39109857	0.00000000
18.57000000	-3.54622360	2.18712413	-7.36268839	0.00006204	0	-0.00005825	1.18749275	646.49900916	-48.06158942	0.83079521	0	-0.39876967	0	-0.00068693	0	0	2.80680567	0.00000000
18.58000000	-3.53446542	2.03190991	-7.41778109	0.00032527	0	-0.00028057	4.33827702	653.23095632	-49.41177080	0.82514773	0	-0.39864061	0	-0.00194143	0	0	3.20550082	0.00000000
18.59000000	-3.48047303	1.84724643	-7.46196474	0.00075970	0	-0.00063733	7.39051935	658.43154803	-50.88529139	0.81995864	0	-0.39848785	0	-0.00333382	0	0	3.56241180	0.00000000
18.60000000	-3.48608216	1.88221227	-7.51878315	0.00109043	0	-0.00088564	10.22583841	662.10001232	-52.31080567	0.81530963	0	-0.39828803	0	-0.00283605	0	0	3.92980685	-0.00000000
18.61000000	-3.68003001	2.46859408	-7.52500801	0.00045478	0	-0.00029235	12.59251480	664.28729310	-53.43968652	0.81113931	0	-0.39802484	0	0.00396635	0	0	4.27408613	-0.00000000
18.62000000	-4.20157703	3.89630261	-7.40666913	-0.00274367	0	0.00246396	14.40463515	664.72718732	-54.04813673	0.80729307	0	-0.39772840	0	0.02288650	0	0	4.54169807	0
18.63000000	-5.08402906	6.03633013	-7.12096192	-0.01011697	0	0.00864550	15.77280435	663.10661620	-54.06016992	0.80358824	0	-0.39742880	0	0.05496674	0	0	4.77035739	0
18.64000000	-6.37180702	8.55299595	-6.70621406	-0.02054278	0	0.01710233	16.93724031	659.57810889	-53.52362111	0.80004198	0	-0.39709900	0	0.08135283	0	0	4.92358147	0.00000000
18.65000000	-8.30126249	11.32903272	-6.18654966	-0.02447518	0	0.01953099	18.11990334	654.57688319	-52.52750340	0.79675022	0	-0.39669278	0	0.04041982	0	0	4.95270594	-0.00000000
18.66000000	-11.32152944	14.95252202	-5.63008461	0.00302955	0	-0.00510739	19.61427869	648.33739833	-51.31363965	0.79387820	0	-0.39613610	0	-0.18484160	0	0	4.87143153	-0.00000000
18.67000000	-15.84181067	21.11763532	-5.19251922	0.10207395	0	-0.08968199	21.65651043	640.48297584	-50.13006270	0.79133932	0	-0.39544646	0	-0.71867223	0	0	4.66231954	0
18.68000000	-21.78305871	32.98759773	-5.09842587	0.30074252	0	-0.25495828	24.45566585	630.38164418	-48.90209222	0.78875142	0	-0.39471407	0	-1.49742239	0	0	4.32655077	0
18.69000000	-27.96515597	54.58895863	-5.39742931	0.54755073	0	-0.45231516	28.09864484	617.70958053	-47.34179908	0.78605140	0	-0.39405709	0	-1.96866423	0	0	4.02581588	0
18.70000000	-31.49466163	88.22414682	-5.77911428	0.73387553	0	-0.58865124	32.41286543	602.73193603	-45.00109037	0.78327188	0	-0.39365818	0	-1.52309677	0	0	3.83013197	0
18.71000000	-29.59246409	131.41160026	-5.45587171	0.82812929	0	-0.64524472	37.26522186	586.06857979	-41.24642048	0.78033023	0	-0.39361709	0	-0.43902619	0	0	3.77944936	0.00000000
18.72000000	-23.69924709	179.13265902	-3.04318946	0.85632736	0	-0.65418645	42.60539511	567.28212317	-35.95079332	0.77711910	0	-0.39389143	0	0.50898917	0	0	3.88208921	0
18.73000000	-17.65777250	228.33244593	1.71685484	0.85261006	0	-0.64590226	48.02203405	544.75425878	-29.75162116	0.77366131	0	-0.39437539	0	0.92260941	0	0	4.01248856	0
18.74000000	-12.84379752	276.56445367	6.78877253	0.84098838	0	-0.63650586	53.10198793	516.61000714	-23.27596368	0.77013947	0	-0.39504726	0	1.31130683	0	0	4.06701938	0
18.75000000	-9.03092017	322.65177866	12.18500327	0.83181157	0	-0.63081753	57.29462185	481.38227184	-16.96125440	0.76710961	0	-0.39596965	0	1.59108854	0	0	3.95286232	0
18.76000000	-6.17621361	366.96675137	17.92973205	0.82625408	0	-0.62846421	59.65112453	437.97635734	-11.25403354	0.76574345	0	-0.39749781	0	1.73585443	0	0	3.62084004	0
18.77000000	-4.03090588	410.29766108	23.83372940	0.82281547	0	-0.62803416	59.27532449	385.65971302	-6.63317898	0.76748495	0	-0.40040883	0	1.86176033	0	0	3.07476905	0.00000000
18.78000000	-1.77697058	452.75219125	30.30835660	0.82008937	0	-0.62847245	55.39743259	325.03596703	-3.50802755	0.77374295	0	-0.40551371	0	1.79549856	0	0	2.42984795	0
18.79000000	0.98447007	493.99512263	37.52749106	0.81715268	0	-0.62915548	47.43344719	258.96396719	-1.95747715	0.78308208	0	-0.41217436	0	1.38958737	0	0	1.77939345	0
18.80000000	4.18435559	533.56922445	45.02882729	0.81373372	0	-0.62980257	35.54850617	192.29751714	-1.81071782	0.78581884	0	-0.41548329	0	0.73157789	0	0	1.18298903	0
18.81000000	7.57574421	571.03918666	52.25440868	0.80981374	0	-0.63040016	21.27433182	130.55796623	-2.55841286	0.75743711	0	-0.40269701	0	-0.02889084	0	0	0.65210534	0
18.82000000	10.89082392	605.72316767	58.87142144	0.80544601	0	-0.63097114	7.19763717	78.90693326	-3.53596580	0.65904859	0	-0.35288874	0	-0.81703450	0	0	0.19263812	0
18.83000000	14.07870342	636.43407912	64.65988803	0.80064395	0	-0.63152339	-3.22457985	40.62770075	-3.83286976	0.46235622	0	-0.24961519	0	-1.58282238	0	0	-0.12156939	0
18.84000000	17.12692522	661.57710858	69.27418283	0.79554721	0	-0.63203590	-6.74372267	15.56657707	-2.93964965	0.22199973	0	-0.12033096	0	-2.24843615	0	0	-0.21000717	0
18.85000000	19.85157907	679.54703510	72.51693295	0.79045872	0	-0.63242963	-4.91400812	2.21491002	-1.18213097	0.05729961	0	-0.03130758	0	-2.80885152	0	0	-0.13778687	0
18.86000000	22.10060469	689.22858683	74.21527425	0.78561771	0	-0.63268454	-2.28378493	-2.19102021	-0.12525424	-0.01232319	0	0.00647841	0	-3.22333349	0	0	-0.05576756	0
18.87000000	24.02178090	690.50200323	74.16906438	0.78121487	0	-0.63286855	-0.61654422	-2.13779358	-0.06896726	-0.02505210	0	0.01348253	0	-3.41912538	0	0	-0.00864965	-0.00000000
18.88000000	25.73737814	684.88527574	72.62237754	0.77714301	0	-0.63301608	0.02495510	-0.91688027	0.03183926	-0.01695934	0	0.00916770	0	-3.41993470	0	0	0.00772954	0.00000000
18.89000000	27.22234824	674.92755812	70.06578315	0.77309320	0	-0.63316817	0.08113020	0.04047761	-0.00654829	-0.00707416	0	0.00383986	0	-3.26258887	0	0	0.00851645	0
18.90000000	28.34062421	663.05658389	67.14388594	0.76879794	0	-0.63336392	-0.06733966	0.42831211	-0.16871629	-0.00123416	0	0.00067987	0	-3.01758492	0	0	0.00483170	0.00000000
18.91000000	29.06789536	651.09681419	64.45260320	0.76410577	0	-0.63360865	-0.20828808	0.49359345	-0.15824563	0.00086999	0	-0.00046419	0	-2.79736963	0	0	0.00165171	-0.00000000
18.92000000	29.42426123	640.08527116	62.24957192	0.75903113	0	-0.63389962	-0.28834298	0.46510755	-0.14697244	0.00102744	0	-0.00055382	0	-2.66667607	0	0	0.00005809	-0.00000000
18.93000000	29.44815491	630.24362405	60.57105327	0.75365776	0	-0.63419226	-0.32877868	0.46777989	-0.17570308	0.00059999	0	-0.00032459	0	-2.64987214	0	0	-0.00038906	0.00000000
18.94000000	29.19794087	621.44155322	59.28798027	0.74820681	0	-0.63441682	-0.34940098	0.46398759	-0.15890485	0.00021430	0	-0.00011629	0	-2.72717542	0	0	-0.00032980	-0.00000000
18.95000000	28.90438147	613.61396249	58.19678454	0.74275444	0	-0.63452152	-0.35489198	0.40690369	-0.16165136	0.00001619	0	-0.00000882	0	-2.83342508	0	0	-0.00016414	-0.00000000
18.96000000	29.02300856	607.01589304	57.10789452	0.73722313	0	-0.63452052	-0.35654052	0.39506826	-0.19670657	-0.00004348	0	0.00002358	0	-2.89333968	0	0	-0.00004517	-0.00000000
18.97000000	29.93506466	602.05034341	55.91647823	0.73156393	0	-0.63444161	-0.35431187	0.44132664	-0.17628276	-0.00004528	0	0.00002376	0	-2.87769095	0	0	0.00001033	-0.00000000
18.98000000	31.67131607	598.90040554	54.66267688	0.72595906	0	-0.63432154	-0.35433031	0.42996227	-0.17738089	-0.00004311	0	0.00002021	0	-2.78882805	0	0	0.00002985	-0.00000000
18.99000000	33.86060058	597.49270623	53.47495480	0.72051616	0	-0.63419606	-0.36562096	0.35428622	-0.19370821	-0.00005555	0	0.00002314	0	-2.63525432	0	0	0.00003758	0.00000000
19.00000000	36.24936123	597.52585516	52.52589283	0.71496630	0	-0.63403738	-0.35332277	0.26320852	-0.20184456	-0.00006509	0	0.00002583	0	-2.47277736	0	0	0.00003561	-0.00000000
19.01000000	38.77184125	598.81429405	51.87220068	0.70910516	0	-0.63382911	-0.34411249	0.19289368	-0.19863848	-0.00001059	0	0.00000331	0	-2.34022424	0	0	-0.00000240	0.00000000
19.02000000	41.30446437	601.36547927	51.44433705	0.70309603	0	-0.63360401	-0.32165503	0.13897467	-0.14999773	0.00021205	0	-0.00008648	0	-2.21393282	0	0	-0.00012616	0.00000000
19.03000000	43.67517788	605.33191066	51.18786717	0.69704219	0	-0.63335971	-0.26249051	0.04420589	-0.14280717	0.00069268	0	-0.00027917	0	-2.03195581	0	0	-0.00037196	-0.00000000
19.04000000	45.85054725	610.69682044	51.16087440	0.69084728	0	-0.63307633	-0.13230867	-0.10717664	-0.17200246	0.00131853	0	-0.00052806	0	-1.82251507	0	0	-0.00065974	0.00000000
19.05000000	47.98534180	617.09884120	51.32817965	0.68445930	0	-0.63283370	0.02154246	-0.13094996	-0.18621162	0.00140867	0	-0.00055776	0	-1.62401907	0	0	-0.00060919	0.00000000
19.06000000	50.22298453	624.00851925	51.76327279	0.67786090	0	-0.63263261	0.02904164	0.17281169	-0.19308084	-0.00069013	0	0.00029588	0	-1.51417824	0	0	0.00063707	0.00000000
19.07000000	52.59521717	630.83731812	52.47098388	0.67128468	0	-0.63243167	-0.47802621	1.04044762	-0.21990038	-0.00745255	0	0.00302003	0	-1.51925809	0	0	0.00425813	0.00000000
19.08000000	55.03921255	637.01760897	53.32624097	0.66482921	0	-0.63221051	-2.03530539	2.62603071	-0.28207487	-0.02017964	0	0.00811601	0	-1.61241487	0	0	0.01060924	0.00000000
19.09000000	57.62118260	642.00853061	54.11719040	0.65844491	0	-0.63195369	-4.84298224	4.63965942	-0.39139696	-0.03346771	0	0.01337425	0	-1.77103607	0	0	0.01630592	-0.00000000
19.10000000	60.45433392	645.56348301	54.64055225	0.65201774	0	-0.63165044	-8.99780499	6.77237269	-0.49558613	-0.02585439	0	0.01013508	0	-1.92501616	0	0	0.00964866	-0.00000000
